<svg width="100" height="100" viewBox="0 0 100 100" fill="none" xmlns="http://www.w3.org/2000/svg">
<path d="M78.1365 86.3812H61.9738H57.6216H56.6816V64.7016H63.772C65.5701 64.7016 66.6326 62.6583 65.5701 61.1871L51.7777 42.1025C50.8991 40.8765 49.0805 40.8765 48.2019 42.1025L34.4095 61.1871C33.347 62.6583 34.389 64.7016 36.2076 64.7016H43.2979V86.3812H42.358H38.0057H19.2685C8.54107 85.7887 0 75.756 0 64.8855C0 57.3865 4.0662 50.8479 10.094 47.313C9.5423 45.8214 9.25623 44.2276 9.25623 42.552C9.25623 34.8896 15.4475 28.6983 23.1099 28.6983C24.765 28.6983 26.3588 28.9844 27.8504 29.5361C32.2844 20.1368 41.8472 13.6187 52.9628 13.6187C67.3478 13.6391 79.199 24.6526 80.5476 38.6902C91.602 40.5905 100 50.8275 100 62.4131C100 74.7956 90.3555 85.523 78.1365 86.3812Z" fill="#5F5F98"/>
</svg>
