<svg width="34" height="29" viewBox="0 0 34 29" fill="none" xmlns="http://www.w3.org/2000/svg">
<path d="M13.8126 26.7713L23.6022 2.76458C24.0207 1.73867 23.5296 0.568333 22.5024 0.149516C21.4767 -0.269434 20.3054 0.221995 19.8871 1.24952L10.0975 25.2563C9.679 26.2824 10.1704 27.4526 11.1976 27.8713C12.2139 28.2864 13.389 27.8106 13.8126 26.7713ZM10.8405 25.5593L20.63 1.55226C20.8792 0.94174 21.5769 0.63893 22.1991 0.892436C22.8148 1.14359 23.1101 1.8452 22.8592 2.46157L13.0697 26.4683C12.8252 27.0681 12.1071 27.3768 11.5006 27.1284C10.8848 26.8772 10.5896 26.1757 10.8405 25.5593Z" fill="#1AAEFF"/>
<path d="M10.7025 19.2528L17.5462 2.77647C17.9707 1.75513 17.4848 0.578814 16.4629 0.154087C15.4413 -0.269633 14.2653 0.21649 13.8411 1.23737L8.84989 13.2533L3.85876 1.2371C3.43423 0.216557 2.25852 -0.269834 1.23657 0.154356C0.214957 0.578814 -0.270897 1.75513 0.153562 2.77647L6.99703 19.2527C7.68009 20.898 10.0192 20.8999 10.7025 19.2528ZM1.54409 0.895462C2.15407 0.642359 2.862 0.92972 3.11765 1.54515L8.47924 14.4532C8.60411 14.7525 9.09574 14.7525 9.22061 14.4532L14.5819 1.54542C14.8366 0.932877 15.5422 0.64162 16.1555 0.895261C16.7683 1.15025 17.0598 1.85602 16.8052 2.46883L9.96138 18.9451C9.5515 19.9325 8.14842 19.9329 7.7384 18.9451L0.894399 2.46876C0.639953 1.85595 0.931478 1.15011 1.54409 0.895462Z" fill="#1AAEFF"/>
<path d="M27.545 11.4249H31.6938C32.8 11.4249 33.6999 10.525 33.6999 9.41875C33.6999 8.3125 32.8 7.4126 31.6938 7.4126H27.545C24.1512 7.4126 21.3901 10.1737 21.3901 13.5678C21.3901 16.9615 24.1512 19.7226 27.545 19.7226C28.7265 19.7226 29.6875 20.6837 29.6875 21.8651C29.6875 23.0466 28.7265 24.0077 27.545 24.0077H23.3963C22.29 24.0077 21.3901 24.9076 21.3901 26.0138C21.3901 27.1201 22.29 28.02 23.3963 28.02H27.545C30.9388 28.02 33.6999 25.2589 33.6999 21.8651C33.6999 18.4713 30.9388 15.7102 27.545 15.7102C26.3635 15.7102 25.4025 14.7489 25.4025 13.5674C25.4025 12.3859 26.3635 11.4249 27.545 11.4249ZM24.6 13.5675C24.6 15.1915 25.9213 16.5128 27.545 16.5128C30.4963 16.5128 32.8975 18.9139 32.8975 21.8652C32.8975 24.8165 30.4964 27.2177 27.545 27.2177H23.3963C22.7325 27.2177 22.1926 26.6777 22.1926 26.0139C22.1926 25.3502 22.7325 24.8102 23.3963 24.8102H27.545C29.1688 24.8102 30.49 23.489 30.49 21.8652C30.49 20.2412 29.1688 18.9202 27.545 18.9202C24.5938 18.9202 22.1926 16.5191 22.1926 13.5678C22.1926 10.6162 24.5937 8.2151 27.545 8.2151H31.6938C32.3575 8.2151 32.8975 8.75503 32.8975 9.41882C32.8975 10.0826 32.3575 10.6225 31.6938 10.6225H27.545C25.9213 10.6225 24.6 11.9435 24.6 13.5675Z" fill="#1AAEFF"/>
</svg>
